<svg xmlns="http://www.w3.org/2000/svg" xmlns:xlink="http://www.w3.org/1999/xlink" width="360.858" height="246.622" viewBox="0 0 360.858 246.622">
  <defs>
    <clipPath id="clip-path">
      <path id="Path_448" data-name="Path 448" d="M1048.267,302.355H977.905a.848.848,0,0,0-.848.848v89.615a.848.848,0,0,0,.848.848h70.362a.848.848,0,0,0,.848-.848V303.2A.848.848,0,0,0,1048.267,302.355Z" transform="translate(-977.057 -302.355)"/>
    </clipPath>
  </defs>
  <g id="Group_299" data-name="Group 299" transform="translate(-1361 -1292)">
    <g id="Group_253" data-name="Group 253" transform="translate(1291.428 1205.812)" opacity="0.3">
      <path id="Path_144" data-name="Path 144" d="M355.139,307.515c-32.682-4.281-54.783,13.569-77.832,22.91-27.135,11-49.7-7.422-70.736-17.825-37.812-18.7-65,18.682-106.846-1.168-40.051-19-39.2-76.687-3.4-98.145s37.916-30.786,38.893-53.948,3.471-66.3,46.471-56.172c36.959,8.7,60.684,6.531,81.625-3.893s93.311-34.311,99.1,39.9c2.764,35.461,7,49.008,33.562,66.578s39.742,46.291,32.479,71.54C421.574,301.2,398.791,313.231,355.139,307.515Z" transform="translate(0 -1)" fill="#1da1f2"/>
    </g>
    <g id="art-2" transform="translate(881.306 1051.718)">
      <g id="Objects" transform="translate(560.675 255.814)">
        <g id="Group_275" data-name="Group 275" transform="translate(110.068 0)">
          <path id="Path_431" data-name="Path 431" d="M1156.954,741.122h4.353l-14.34-93.028-4.08,3.966Z" transform="translate(-1099.051 -544.397)" fill="#0e538c"/>
          <path id="Path_432" data-name="Path 432" d="M1021.488,741.122h-4.361l13.685-93.028,4.08,3.966Z" transform="translate(-1006.535 -544.397)" fill="#0e538c"/>
          <path id="Path_433" data-name="Path 433" d="M1109.6,673.636h-4.21l.331,86.276h4.21Z" transform="translate(-1071.467 -563.187)" fill="#0e538c"/>
          <rect id="Rectangle_55" data-name="Rectangle 55" width="4.21" height="15.248" transform="translate(33.924)" fill="#0e538c"/>
          <path id="Path_434" data-name="Path 434" d="M1096.912,654.132h-18.443v3.495h2.941v1.747h12.561v-1.747h2.941Z" transform="translate(-1051.661 -548.839)" fill="#ffdb57"/>
          <rect id="Rectangle_56" data-name="Rectangle 56" width="50.113" height="2.72" transform="translate(10.972 103.615)" fill="#0e538c"/>
          <rect id="Rectangle_57" data-name="Rectangle 57" width="13.238" height="3.537" transform="translate(42.648 12.315) rotate(180)" fill="#0e538c"/>
          <rect id="Rectangle_58" data-name="Rectangle 58" width="9.016" height="3.537" transform="translate(40.537 10.546) rotate(180)" fill="#0e538c"/>
          <path id="Path_435" data-name="Path 435" d="M1048.267,302.355H977.905a.848.848,0,0,0-.848.848v89.615a.848.848,0,0,0,.848.848h70.362a.848.848,0,0,0,.848-.848V303.2A.848.848,0,0,0,1048.267,302.355Z" transform="translate(-977.057 -290.052)" fill="#f2f2f2"/>
          <g id="Group_274" data-name="Group 274" transform="translate(0 12.303)">
            <g id="Group_273" data-name="Group 273" clip-path="url(#clip-path)">
              <g id="Group_269" data-name="Group 269" transform="translate(25.83 2.01)">
                <path id="Path_436" data-name="Path 436" d="M1087.621,352.146s-2.2-12.079,4.3-18.283c5.113-4.971,8.159-2.876,13.332-7.18s13.088-17.633,19.72-16.673,4.654,10.7,3.462,16.029c-1.4,6.285,2.611,11.705,3.978,17.569,1.11,4.761,1.159,10.353-1.2,14.833-2.543,4.833-9.917,6.23-10.838,11.884-.879,5.4,8.751,14.094,2.984,22.79-6.795,10.246-20.349,16.141-32.377,12.718-11.229-3.2-20.921-17.813-13.75-28.632C1082.991,366.663,1090.417,369.912,1087.621,352.146Z" transform="translate(-1074.77 -309.961)" fill="#ffdb57"/>
                <g id="Group_268" data-name="Group 268" transform="translate(6.706 13.312)">
                  <g id="Group_267" data-name="Group 267">
                    <path id="Path_437" data-name="Path 437" d="M1172.02,360.963c-3.516,5.788-6.714,11.794-9.682,17.888a200.354,200.354,0,0,0-7.984,18.689,124.563,124.563,0,0,0-5.518,19.474,70.787,70.787,0,0,0-1.241,9.987,50.6,50.6,0,0,0,.4,9.964l0,.011a1.063,1.063,0,1,1-2.1.312l0-.017a52.6,52.6,0,0,1-.26-10.388,72.569,72.569,0,0,1,1.433-10.218,126.2,126.2,0,0,1,5.9-19.645,201.669,201.669,0,0,1,8.332-18.684c3.083-6.082,6.378-12.043,10.014-17.823a.419.419,0,0,1,.713.44Z" transform="translate(-1133.505 -360.318)" fill="#cce9ff"/>
                    <path id="Path_438" data-name="Path 438" d="M1206.177,465.127a14.273,14.273,0,0,1,4.246-2.755,19.928,19.928,0,0,1,4.885-1.257,29.86,29.86,0,0,1,5.009-.44,25.124,25.124,0,0,1,4.964.52.084.084,0,0,1-.018.166h-.005a28.241,28.241,0,0,0-4.9.151,28.775,28.775,0,0,0-4.767.912c-1.564.42-3.042,1.077-4.59,1.519-1.55.459-3.092.939-4.743,1.328h0a.086.086,0,0,1-.08-.145Z" transform="translate(-1178.127 -434.146)" fill="#cce9ff"/>
                    <path id="Path_439" data-name="Path 439" d="M1150.739,431.152a20.153,20.153,0,0,1-1.664-2.807c-.493-.925-.738-1.957-1.183-2.914a21.786,21.786,0,0,0-3.467-5.331l0,0a.084.084,0,0,1,.113-.123,16.3,16.3,0,0,1,2.492,2.168,20.418,20.418,0,0,1,2.038,2.64,10.932,10.932,0,0,1,1.572,2.956,7.6,7.6,0,0,1,.267,3.382.09.09,0,0,1-.1.073.089.089,0,0,1-.057-.035Z" transform="translate(-1132.702 -404.191)" fill="#cce9ff"/>
                    <path id="Path_440" data-name="Path 440" d="M1162.065,606.949a14.176,14.176,0,0,1,3.883-2.891,20.3,20.3,0,0,1,4.557-1.558,33.357,33.357,0,0,1,4.723-.885,26.475,26.475,0,0,1,4.775-.059.084.084,0,0,1,0,.167h0a30.458,30.458,0,0,0-4.635.717,32.257,32.257,0,0,0-4.457,1.337c-1.457.538-2.817,1.287-4.272,1.807-1.455.536-2.908,1.076-4.48,1.5a.086.086,0,0,1-.109-.056A.1.1,0,0,1,1162.065,606.949Z" transform="translate(-1145.679 -537.729)" fill="#cce9ff"/>
                    <path id="Path_441" data-name="Path 441" d="M1109.551,585.138a33.359,33.359,0,0,1-2.234-2.9c-.7-.95-1.187-2.033-1.884-2.994a16.869,16.869,0,0,0-2.349-2.663,15.611,15.611,0,0,0-2.9-2.141l0,0a.084.084,0,0,1,.071-.151,14.106,14.106,0,0,1,3.351,1.638,17.968,17.968,0,0,1,2.861,2.463,12.078,12.078,0,0,1,2.3,3.006,8.757,8.757,0,0,1,.946,3.689.088.088,0,0,1-.154.059Z" transform="translate(-1100.14 -517.723)" fill="#cce9ff"/>
                  </g>
                </g>
              </g>
              <g id="Group_272" data-name="Group 272" transform="translate(-7.331 -22.371)">
                <path id="Path_442" data-name="Path 442" d="M959.278,255.837s-10.125,6.945-9.952,15.928c.072,7.131,3.7,7.818,4.292,14.522s-3.3,21.71,2.052,25.742,10.87-4.229,13.817-8.831c3.473-5.423,10.148-6.391,15.274-9.55,4.162-2.565,8.166-6.468,9.686-11.3,1.64-5.209-2.562-11.428.8-16.064,3.214-4.427,16.169-3.714,18.28-13.933,2.488-12.04-2.873-25.814-13.775-31.942-10.177-5.721-27.38-2.306-30.01,10.4C966.323,242.326,973.859,245.309,959.278,255.837Z" transform="translate(-949.324 -217.729)" fill="#ffdb57"/>
                <g id="Group_271" data-name="Group 271" transform="translate(4.596 8.463)">
                  <g id="Group_270" data-name="Group 270">
                    <path id="Path_443" data-name="Path 443" d="M995.11,322.25c1.633-6.572,3.644-13.072,5.88-19.472a200.457,200.457,0,0,1,7.645-18.83,124.564,124.564,0,0,1,9.939-17.633,70.745,70.745,0,0,1,6.216-7.915,50.589,50.589,0,0,1,7.358-6.732l.009-.007a1.063,1.063,0,0,0-1.26-1.712l-.014.01a52.614,52.614,0,0,0-7.558,7.131,72.61,72.61,0,0,0-6.245,8.213,126.183,126.183,0,0,0-9.791,18.024,201.733,201.733,0,0,0-7.4,19.074c-2.146,6.472-4.057,13.01-5.6,19.662a.419.419,0,0,0,.814.2Z" transform="translate(-986.993 -249.743)" fill="#cce9ff"/>
                    <path id="Path_444" data-name="Path 444" d="M1051,414.861a14.267,14.267,0,0,0,1.035,4.954,19.933,19.933,0,0,0,2.548,4.353,29.893,29.893,0,0,0,3.216,3.866,25.133,25.133,0,0,0,3.866,3.158.084.084,0,0,0,.1-.13l0,0a28.212,28.212,0,0,1-3.341-3.582,28.8,28.8,0,0,1-2.71-4.027c-.8-1.406-1.378-2.918-2.155-4.329s-1.511-2.857-2.4-4.3l0,0a.086.086,0,0,0-.16.045Z" transform="translate(-1028.719 -371.15)" fill="#cce9ff"/>
                    <path id="Path_445" data-name="Path 445" d="M979.086,398.922a20.165,20.165,0,0,0-3.165.8c-1,.3-1.909.855-2.9,1.213a21.768,21.768,0,0,1-6.226,1.294h-.005a.084.084,0,0,0-.007.167,16.284,16.284,0,0,0,3.294.242,20.4,20.4,0,0,0,3.31-.413,10.927,10.927,0,0,0,3.2-.966,7.608,7.608,0,0,0,2.589-2.193.09.09,0,0,0-.086-.141Z" transform="translate(-966.711 -359.486)" fill="#cce9ff"/>
                    <path id="Path_446" data-name="Path 446" d="M1122.576,281.668a14.175,14.175,0,0,0,.683,4.793,20.3,20.3,0,0,0,2.1,4.332,33.321,33.321,0,0,0,2.7,3.976,26.481,26.481,0,0,0,3.321,3.431.084.084,0,0,0,.12-.116l0,0a30.438,30.438,0,0,1-2.755-3.8,32.277,32.277,0,0,1-2.19-4.106c-.644-1.413-1.07-2.906-1.726-4.305s-1.284-2.822-2.088-4.24a.087.087,0,0,0-.117-.038A.1.1,0,0,0,1122.576,281.668Z" transform="translate(-1081.362 -273.168)" fill="#cce9ff"/>
                    <path id="Path_447" data-name="Path 447" d="M1059.4,267.973a33.348,33.348,0,0,0-3.632.455c-1.166.173-2.279.589-3.452.771a16.869,16.869,0,0,1-3.545.208,15.621,15.621,0,0,1-3.561-.549h-.005a.084.084,0,0,0-.057.156,14.109,14.109,0,0,0,3.523,1.225,17.96,17.96,0,0,0,3.764.3,12.075,12.075,0,0,0,3.754-.484,8.758,8.758,0,0,0,3.285-1.927.089.089,0,0,0-.067-.151Z" transform="translate(-1024.375 -263.154)" fill="#cce9ff"/>
                  </g>
                </g>
              </g>
            </g>
          </g>
          <rect id="Rectangle_59" data-name="Rectangle 59" width="2.105" height="7.01" transform="translate(33.924)" fill="#ffdb57"/>
          <path id="Path_449" data-name="Path 449" d="M1096.912,654.132h-18.443v3.495h2.941v1.747h12.561v-1.747h2.941Z" transform="translate(-1051.661 -548.839)" fill="#0e538c"/>
          <rect id="Rectangle_60" data-name="Rectangle 60" width="2.105" height="7.01" transform="translate(33.924)" fill="#2a94f4"/>
        </g>
        <g id="Group_276" data-name="Group 276" transform="translate(7.279 80.757)">
          <path id="Path_450" data-name="Path 450" d="M623.869,566.765l1.2-1.481.7,1.844-3.29,17.269-1.9-.363Z" transform="translate(-612.022 -564.234)" fill="#0b4870"/>
          <path id="Path_451" data-name="Path 451" d="M602.807,575l.495-.992.859.784,2.67,17.376-1.353.208Z" transform="translate(-598.948 -570.65)" fill="#0b4870"/>
          <path id="Path_452" data-name="Path 452" d="M588.465,562.058l.265-.746.418.492a4.688,4.688,0,0,1,1.061,2.323h0a.949.949,0,0,1-.276.825h0l1.655,15.407-.492.127L588.9,565.156h0a1.325,1.325,0,0,1-.639-.942h0A4.43,4.43,0,0,1,588.465,562.058Z" transform="translate(-588.21 -561.312)" fill="#0b4870"/>
          <path id="Path_453" data-name="Path 453" d="M596.526,575.691l.1-.721.27.515a7.678,7.678,0,0,1,.756,2.37h0a1.3,1.3,0,0,1-.1.8h0l1.963,15.359-.271.093-2.264-15.32h0a1.875,1.875,0,0,1-.425-.974h0A7.374,7.374,0,0,1,596.526,575.691Z" transform="translate(-594.281 -571.36)" fill="#0b4870"/>
          <path id="Path_454" data-name="Path 454" d="M612.66,583.649a.368.368,0,0,1,.638-.06,2.133,2.133,0,0,1,.357.9h0a1.3,1.3,0,0,1-.1.8h0l1.963,15.359-.271.093-2.264-15.32h0a1.875,1.875,0,0,1-.425-.974h0A1.451,1.451,0,0,1,612.66,583.649Z" transform="translate(-606.107 -577.584)" fill="#0b4870"/>
          <path id="Path_455" data-name="Path 455" d="M617.385,579.11l.293-.576.119.5a5.982,5.982,0,0,1,.081,2.188h0a1.043,1.043,0,0,1-.315.641h0l-2.293,13.39-.286,0,1.993-13.438h0a1.5,1.5,0,0,1-.143-.931h0A5.74,5.74,0,0,1,617.385,579.11Z" transform="translate(-607.907 -573.981)" fill="#0b4870"/>
          <path id="Path_456" data-name="Path 456" d="M594.505,622.93h9.2l.026-.207c1.8-14.492,1.8-14.553,1.8-14.574v-.239l-.239,0c-.124,0-12.424.169-12.584.169h-.271Z" transform="translate(-591.32 -595.593)" fill="#ffdb57"/>
        </g>
        <g id="Group_277" data-name="Group 277" transform="translate(25.248 88.726)">
          <path id="Path_457" data-name="Path 457" d="M656.562,603.7h8.092a.375.375,0,0,1,.375.375v14.568h-8.84V604.075A.374.374,0,0,1,656.562,603.7Z" transform="translate(-656.188 -600.464)" fill="#f2f2f2"/>
          <path id="Path_458" data-name="Path 458" d="M666.071,591.459h3.08a.364.364,0,0,1,.363.363v2.872h-3.807v-2.872A.363.363,0,0,1,666.071,591.459Z" transform="translate(-663.191 -591.459)" fill="#ffdb57"/>
          <path id="Path_459" data-name="Path 459" d="M659.505,617.292h.151a.464.464,0,0,0,.446-.356c.443-1.748,1.469-2.975,2.667-2.975s2.224,1.226,2.667,2.975a.463.463,0,0,0,.446.356h.035a.458.458,0,0,1,.458.458v2.7a.458.458,0,0,1-.458.458h-.168a.457.457,0,0,0-.437.31c-.493,1.516-1.446,2.546-2.543,2.546s-2.049-1.03-2.543-2.546a.457.457,0,0,0-.437-.31h-.284a.458.458,0,0,1-.458-.458v-2.7A.458.458,0,0,1,659.505,617.292Z" transform="translate(-658.292 -608.013)" fill="#0b4870"/>
        </g>
        <g id="Group_278" data-name="Group 278" transform="translate(0 106.388)">
          <path id="Path_460" data-name="Path 460" d="M671.841,762.092a1.319,1.319,0,0,0,.207-.017,1.212,1.212,0,0,0,1.022-1.391l-15.759-83.91a1.249,1.249,0,0,0-1.434-.992,1.212,1.212,0,0,0-1.023,1.391l15.759,83.91A1.237,1.237,0,0,0,671.841,762.092Z" transform="translate(-629.946 -671.142)" fill="#0b4870"/>
          <path id="Path_461" data-name="Path 461" d="M561.922,762.1a1.235,1.235,0,0,0,1.227-1.009l16.807-83.91a1.212,1.212,0,0,0-1.023-1.391,1.248,1.248,0,0,0-1.434.992l-16.807,83.91a1.212,1.212,0,0,0,1.022,1.391A1.285,1.285,0,0,0,561.922,762.1Z" transform="translate(-560.675 -671.146)" fill="#0b4870"/>
          <rect id="Rectangle_61" data-name="Rectangle 61" width="41.176" height="7.813" transform="translate(43.141 7.813) rotate(180)" fill="#0b4870"/>
          <rect id="Rectangle_62" data-name="Rectangle 62" width="30.299" height="2.375" transform="translate(36.676 61.448) rotate(180)" fill="#0b4870"/>
        </g>
        <path id="Path_462" data-name="Path 462" d="M1223.391,920.094h16.829l.047-.365c3.292-25.6,3.292-25.71,3.292-25.746v-.422l-.437.006c-.227,0-22.727.3-23.019.3h-.5Z" transform="translate(-1045.422 -724.975)" fill="#cce9ff"/>
        <path id="Path_463" data-name="Path 463" d="M1226.359,894.213l11.016-.143v2.923a.887.887,0,0,1-1.57.567h0a1.153,1.153,0,0,0-2.021.53l-.4,2.195a1.163,1.163,0,0,1-2.208.258l-1.163-2.652a.758.758,0,0,0-1.44.17l-.223,1.234a1.063,1.063,0,0,1-2.086.033l-1.088-5.1Z" transform="translate(-1049.519 -725.35)" fill="#ffdb57"/>
      </g>
      <g id="Seat" transform="translate(627.824 379.748)">
        <g id="Group_283" data-name="Group 283" transform="translate(0 0)">
          <g id="Group_280" data-name="Group 280">
            <path id="Path_464" data-name="Path 464" d="M885.623,751.8h-9.781l1.139,23.671h7.5Z" transform="translate(-859.678 -744.621)" fill="#ffdb57"/>
            <path id="Path_465" data-name="Path 465" d="M884.371,825.553l.684,38.974h3.9l.684-38.974Z" transform="translate(-865.952 -798.879)" fill="#ffdb57"/>
            <g id="Group_279" data-name="Group 279">
              <ellipse id="Ellipse_15" data-name="Ellipse 15" cx="20.438" cy="8.676" rx="20.438" ry="8.676" fill="#ffdb57"/>
            </g>
          </g>
          <g id="Group_282" data-name="Group 282" transform="translate(8.157 64.149)">
            <rect id="Rectangle_63" data-name="Rectangle 63" width="23.753" height="2.492" transform="translate(25.705 2.492) rotate(180)" fill="#ffdb57"/>
            <g id="Group_281" data-name="Group 281" transform="translate(0 2.136)">
              <path id="Path_466" data-name="Path 466" d="M925.562,978.958a3.267,3.267,0,1,0,3.254-3.56A3.417,3.417,0,0,0,925.562,978.958Z" transform="translate(-904.412 -975.398)" fill="#ffdb57"/>
              <path id="Path_467" data-name="Path 467" d="M885.557,978.958a3.267,3.267,0,1,0,3.254-3.56A3.417,3.417,0,0,0,885.557,978.958Z" transform="translate(-874.982 -975.398)" fill="#ffdb57"/>
              <path id="Path_468" data-name="Path 468" d="M845.552,978.958a3.267,3.267,0,1,0,3.254-3.56A3.417,3.417,0,0,0,845.552,978.958Z" transform="translate(-845.552 -975.398)" fill="#ffdb57"/>
            </g>
          </g>
        </g>
      </g>
      <g id="Character" transform="translate(604.378 298.219)">
        <g id="Group_288" data-name="Group 288" transform="translate(0)">
          <path id="Path_469" data-name="Path 469" d="M1049.54,698.808c4.8,2.938,1.94,7.934,1.94,7.934l-8.3-3.967-1.633-6.053Z" transform="translate(-958.137 -622.575)" fill="#3d2210"/>
          <g id="Group_287" data-name="Group 287">
            <g id="Group_284" data-name="Group 284" transform="translate(59.328 164.396)">
              <path id="Path_470" data-name="Path 470" d="M954.391,1038.131l.2,4.853-3.519.539-.141-5.353Z" transform="translate(-950.798 -1038.131)" fill="#edac90"/>
              <path id="Path_471" data-name="Path 471" d="M950.632,1043.284s14.563,0,16.735,3.259c1.584,2.376-16.931,3.357-16.931,3.357Z" transform="translate(-950.436 -1041.922)" fill="#0b4870"/>
            </g>
            <g id="Group_285" data-name="Group 285" transform="translate(66.076 136.024)">
              <path id="Path_472" data-name="Path 472" d="M987.907,932.661l-2.49,4.17-3.24-1.474,2.811-4.557Z" transform="translate(-980.534 -930.8)" fill="#edac90"/>
              <path id="Path_473" data-name="Path 473" d="M979.5,936.392s11.249,5.14,12.466,11.549c.533,2.806-16.008-6.456-16.008-6.456Z" transform="translate(-975.962 -934.914)" fill="#0b4870"/>
            </g>
            <path id="Path_474" data-name="Path 474" d="M793.2,436.842c5.714-3.517-1.579-6.555,5.123-6.218,1.516.076,3.164.223,4.428-.616,1.643-1.092,1.942-3.422,1.531-5.352a10.962,10.962,0,0,0-10.111-8.422c-6.424-.178-12,5.366-18.421,5.04-2.448-.124-4.758-1.1-7.107-1.8-6.847-2.046-15.66-.957-19.056,5.331-.909,1.684-1.345,3.6-2.347,5.232-2.843,4.629-9.084,5.538-13.654,8.476a16.89,16.89,0,0,0-7.51,15.5c.244,2.5,1.176,5.1,3.209,6.58,0,0,6.914,8.818,22.565,0S793.2,436.842,793.2,436.842Z" transform="translate(-726 -416.229)" fill="#0b4870"/>
            <path id="Path_475" data-name="Path 475" d="M930.319,530.138c2.438-2.769,39.813,38.178,47.79,42.489s6.147,0,6.147,0l-16.011-17.858-30.79-34.531Z" transform="translate(-876.308 -492.744)" fill="#2a94f4"/>
            <path id="Path_476" data-name="Path 476" d="M834.165,493.588a19.607,19.607,0,0,0-20.737,2.233l-.185.147c-10.284,8.226-23.273,24.391-19.424,52.1l36.331-4.311s-5.108-6.173,1.475-24.45c3.622-10.054,6.816-19.44,6.816-19.44Z" transform="translate(-775.383 -471.682)" fill="#2a94f4"/>
            <path id="Path_477" data-name="Path 477" d="M874.524,516.448s3.078,32.636,15.394,36.947,34.29,3.749,34.29,3.749,1.9-1.709-21.677-7.34q-1.468-.351-3.069-.719s-13.366-7.723-12.675-31.335a17.748,17.748,0,0,0-.172-3.2c-.531-3.475-2.211-10.448-7.108-9.8C873.011,505.6,874.524,516.448,874.524,516.448Z" transform="translate(-835.15 -481.317)" fill="#2a94f4"/>
            <path id="Path_478" data-name="Path 478" d="M874.524,516.448s3.078,32.636,15.394,36.947,34.29,3.749,34.29,3.749,1.9-1.709-21.677-7.34q-1.468-.351-3.069-.719s-13.366-7.723-12.675-31.335a17.748,17.748,0,0,0-.172-3.2c-.531-3.475-2.211-10.448-7.108-9.8C873.011,505.6,874.524,516.448,874.524,516.448Z" transform="translate(-835.15 -481.317)" fill="#f7f7f7" opacity="0.21"/>
            <path id="Path_479" data-name="Path 479" d="M795.746,693.141s27.71,33.253,33.252,43.105,3.079,44.865,4.927,45.832,8.92.011,8.92.011l.438-26.571.3-13.914a51.753,51.753,0,0,0-3.385-19.552l-7.5-19.676s30.633,1.9,25.248,17.242c-6.768,19.275-12.932,33.869-12.932,33.869l6.158,2.463s28.915-36.331,22.168-52.341-41.258-14.78-41.258-14.78Z" transform="translate(-777.309 -616.753)" fill="#0e538c"/>
            <g id="Group_286" data-name="Group 286" transform="translate(54.662 5.78)">
              <path id="Path_480" data-name="Path 480" d="M956.439,448.854l-4.892,10.321a4.589,4.589,0,0,1-6.132,2.172l-1.354-.649-2.288,2.579a4.388,4.388,0,0,1-6.2.37l-1.087-.964a5.075,5.075,0,0,1-.428-7.163l11.307-12.745Z" transform="translate(-932.783 -441.537)" fill="#3d2210"/>
              <path id="Path_481" data-name="Path 481" d="M954.947,454.293s4.566,1.116,6.674-1.367c0,0-2.37-6.218.072-6.236s2.6,4.73,2.6,4.73,1.73-5.016,3.063-5.532c0,0,5.986,5.3,8.144.916,0,0-.324-2.984-3.9-6.534s-10.682-1.691-10.682-1.691Z" transform="translate(-949.088 -438.093)" fill="#0b4870"/>
            </g>
            <path id="Path_482" data-name="Path 482" d="M927.366,451.745a15.163,15.163,0,0,0,7.291,2.548c3.869.118,6.36-16.2,6.36-16.2Z" transform="translate(-874.136 -432.313)" fill="#0b4870"/>
          </g>
          <path id="Path_483" data-name="Path 483" d="M1131.732,716.935c2.267,1.275,5.272-.942,5.376.332.221,2.705.6,1.53,1.353.369,1.068-1.651,1.807,7.52-3.3,6.226a10.193,10.193,0,0,1-6.8-5.212,2.509,2.509,0,0,1,1.1-1.393C1131.093,716.219,1131.732,716.935,1131.732,716.935Z" transform="translate(-1021.998 -637.268)" fill="#3d2210"/>
        </g>
        <path id="Path_484" data-name="Path 484" d="M1155.461,671.4l.677-.723-.04.793a9.161,9.161,0,0,1-.815,3.254h0a1.6,1.6,0,0,1-.738.808h0l-9.1,18.718-.422-.115,8.675-18.918h0a2.29,2.29,0,0,1,.187-1.431h0A8.776,8.776,0,0,1,1155.461,671.4Z" transform="translate(-1034.26 -603.414)" fill="#0b4870"/>
      </g>
    </g>
  </g>
</svg>
