<svg xmlns="http://www.w3.org/2000/svg" width="360.858" height="278.565" viewBox="0 0 360.858 278.565">
  <g id="Group_297" data-name="Group 297" transform="translate(-199 -1275)">
    <g id="Group_255" data-name="Group 255" transform="translate(129.428 1204.812)" opacity="0.3">
      <path id="Path_144" data-name="Path 144" d="M355.139,307.515c-32.682-4.281-54.783,13.569-77.832,22.91-27.135,11-49.7-7.422-70.736-17.825-37.812-18.7-65,18.682-106.846-1.168-40.051-19-39.2-76.687-3.4-98.145s37.916-30.786,38.893-53.948,3.471-66.3,46.471-56.172c36.959,8.7,60.684,6.531,81.625-3.893s93.311-34.311,99.1,39.9c2.764,35.461,7,49.008,33.562,66.578s39.742,46.291,32.479,71.54C421.574,301.2,398.791,313.231,355.139,307.515Z" fill="#1da1f2"/>
    </g>
    <g id="twitter_1_" data-name="twitter (1)" transform="translate(-147 1275)">
      <g id="Background" transform="translate(383.08)">
        <g id="Group_235" data-name="Group 235" transform="translate(42.567 84.051)">
          <path id="Path_333" data-name="Path 333" d="M710.487,323.412a12.45,12.45,0,0,1-3.442.944,5.937,5.937,0,0,0,2.63-3.3,11.966,11.966,0,0,1-3.788,1.447,5.976,5.976,0,0,0-10.337,4.087,6.09,6.09,0,0,0,.139,1.363,16.911,16.911,0,0,1-12.316-6.25,5.977,5.977,0,0,0,1.835,7.985,5.9,5.9,0,0,1-2.7-.737v.066a6,6,0,0,0,4.787,5.872,5.948,5.948,0,0,1-1.568.2,5.237,5.237,0,0,1-1.133-.1,6.032,6.032,0,0,0,5.584,4.163,12,12,0,0,1-7.409,2.548,11.131,11.131,0,0,1-1.429-.081,16.827,16.827,0,0,0,9.168,2.682c10.995,0,17.006-9.107,17.006-17,0-.265-.008-.519-.021-.773A11.955,11.955,0,0,0,710.487,323.412Z" transform="translate(-645.715 -320.61)" fill="#2a94f4"/>
          <path id="Path_334" data-name="Path 334" d="M575.682,395.01H546.441a.99.99,0,0,0-.991.991v1.413a.99.99,0,0,0,.991.991h29.241a.99.99,0,0,0,.991-.991V396A.99.99,0,0,0,575.682,395.01Z" transform="translate(-545.45 -375.505)" fill="#ffdb57"/>
          <path id="Path_335" data-name="Path 335" d="M611.561,323.59h-16.49a.99.99,0,0,0-.991.991v1.413a.99.99,0,0,0,.991.991h16.49a.99.99,0,0,0,.991-.991v-1.413A.992.992,0,0,0,611.561,323.59Z" transform="translate(-581.331 -322.809)" fill="#ffdb57"/>
          <path id="Path_336" data-name="Path 336" d="M624.3,359.3H612.331a.99.99,0,0,0-.991.991V361.7a.99.99,0,0,0,.991.991H624.3a.99.99,0,0,0,.991-.991v-1.413A.99.99,0,0,0,624.3,359.3Z" transform="translate(-594.066 -349.157)" fill="#ffdb57"/>
        </g>
        <g id="Group_236" data-name="Group 236" transform="translate(53.475 196.536)">
          <path id="Path_337" data-name="Path 337" d="M698.387,751.57a8.494,8.494,0,0,1-2.323.637,3.994,3.994,0,0,0,1.772-2.228,8.064,8.064,0,0,1-2.556.975,4.051,4.051,0,0,0-6.876,3.678,11.409,11.409,0,0,1-8.308-4.216,4.034,4.034,0,0,0,1.24,5.387,4,4,0,0,1-1.822-.5v.045a4.051,4.051,0,0,0,3.23,3.961,4.053,4.053,0,0,1-1.056.134,3.667,3.667,0,0,1-.763-.068,4.068,4.068,0,0,0,3.767,2.808,8.1,8.1,0,0,1-5,1.72,7.779,7.779,0,0,1-.965-.055,11.471,11.471,0,0,0,17.654-9.66c0-.178-.005-.351-.016-.522A8.181,8.181,0,0,0,698.387,751.57Z" transform="translate(-654.698 -749.68)" fill="#2a94f4"/>
          <path id="Path_338" data-name="Path 338" d="M607.21,799.86H587.972a.913.913,0,0,0-.912.912v.464a.913.913,0,0,0,.912.912H607.21a.913.913,0,0,0,.912-.912v-.464A.913.913,0,0,0,607.21,799.86Z" transform="translate(-587.06 -786.705)" fill="#ffdb57"/>
          <path id="Path_339" data-name="Path 339" d="M631.408,751.69H620.772a.913.913,0,0,0-.912.912v.464a.913.913,0,0,0,.912.912h10.636a.913.913,0,0,0,.912-.912V752.6A.911.911,0,0,0,631.408,751.69Z" transform="translate(-611.261 -751.163)" fill="#ffdb57"/>
          <path id="Path_340" data-name="Path 340" d="M640,775.78h-7.587a.913.913,0,0,0-.912.912v.464a.913.913,0,0,0,.912.912H640a.913.913,0,0,0,.912-.912v-.464A.911.911,0,0,0,640,775.78Z" transform="translate(-619.85 -768.938)" fill="#ffdb57"/>
        </g>
        <g id="Group_237" data-name="Group 237" transform="translate(125.441)">
          <path id="Path_341" data-name="Path 341" d="M1097.765,4.386a19.44,19.44,0,0,1-5.387,1.476,9.294,9.294,0,0,0,4.113-5.167,18.66,18.66,0,0,1-5.93,2.262,9.348,9.348,0,0,0-16.17,6.394,9.559,9.559,0,0,0,.218,2.131A26.472,26.472,0,0,1,1055.337,1.7a9.355,9.355,0,0,0,2.873,12.5,9.232,9.232,0,0,1-4.223-1.151v.1a9.39,9.39,0,0,0,7.49,9.186,9.375,9.375,0,0,1-2.451.307,8.234,8.234,0,0,1-1.77-.16A9.435,9.435,0,0,0,1065.991,29a18.786,18.786,0,0,1-11.593,3.987,17.5,17.5,0,0,1-2.239-.128,26.316,26.316,0,0,0,14.343,4.195c17.205,0,26.612-14.251,26.612-26.607,0-.414-.013-.813-.034-1.209A18.53,18.53,0,0,0,1097.765,4.386Z" transform="translate(-1002.195)" fill="#2a94f4"/>
          <path id="Path_342" data-name="Path 342" d="M944.38,50.484H916.612a1.171,1.171,0,0,1-1.172-1.172v-.931a1.171,1.171,0,0,1,1.172-1.172H944.38a1.171,1.171,0,0,1,1.172,1.172v.931A1.171,1.171,0,0,1,944.38,50.484Z" transform="translate(-901.317 -34.833)" fill="#ffdb57"/>
          <path id="Path_343" data-name="Path 343" d="M978.982,119.354h-15.47a1.171,1.171,0,0,1-1.172-1.172v-.931a1.171,1.171,0,0,1,1.172-1.172h15.47a1.171,1.171,0,0,1,1.172,1.172v.931A1.171,1.171,0,0,1,978.982,119.354Z" transform="translate(-935.922 -85.649)" fill="#ffdb57"/>
          <path id="Path_344" data-name="Path 344" d="M904.632,84.914h-41.89a1.171,1.171,0,0,1-1.172-1.172v-.931a1.171,1.171,0,0,1,1.172-1.172h41.89a1.171,1.171,0,0,1,1.172,1.172v.931A1.171,1.171,0,0,1,904.632,84.914Z" transform="translate(-861.57 -60.237)" fill="#ffdb57"/>
        </g>
        <g id="Group_240" data-name="Group 240" transform="translate(57.248 9.241)">
          <g id="Group_239" data-name="Group 239">
            <g id="Group_238" data-name="Group 238" transform="translate(25.036)">
              <path id="Path_345" data-name="Path 345" d="M719.815,37.45a9.72,9.72,0,0,1-2.7.739,4.652,4.652,0,0,0,2.061-2.59,9.361,9.361,0,0,1-2.973,1.135,4.685,4.685,0,0,0-8.106,3.2,4.9,4.9,0,0,0,.107,1.07,13.267,13.267,0,0,1-9.661-4.9,4.689,4.689,0,0,0,1.439,6.266,4.633,4.633,0,0,1-2.118-.577v.052a4.706,4.706,0,0,0,3.754,4.6,4.66,4.66,0,0,1-1.229.155,4.129,4.129,0,0,1-.886-.081,4.732,4.732,0,0,0,4.378,3.264,9.407,9.407,0,0,1-5.809,2,8.78,8.78,0,0,1-1.122-.066,13.339,13.339,0,0,0,20.527-11.234c0-.207-.008-.406-.018-.606A9.234,9.234,0,0,0,719.815,37.45Z" transform="translate(-696.95 -35.25)" fill="#cce9ff"/>
            </g>
            <path id="Path_346" data-name="Path 346" d="M642.955,60.551H629.037a.586.586,0,0,1-.587-.587V59.5a.586.586,0,0,1,.587-.587h13.918a.586.586,0,0,1,.587.587v.467A.588.588,0,0,1,642.955,60.551Z" transform="translate(-621.372 -52.707)" fill="#cce9ff"/>
            <path id="Path_347" data-name="Path 347" d="M660.292,95.071h-7.755a.586.586,0,0,1-.587-.587v-.467a.586.586,0,0,1,.587-.587h7.755a.586.586,0,0,1,.587.587v.467A.586.586,0,0,1,660.292,95.071Z" transform="translate(-638.711 -78.178)" fill="#cce9ff"/>
            <path id="Path_348" data-name="Path 348" d="M623.034,77.811h-21a.586.586,0,0,1-.587-.587v-.467a.586.586,0,0,1,.587-.587h21a.586.586,0,0,1,.587.587v.467A.588.588,0,0,1,623.034,77.811Z" transform="translate(-601.45 -65.442)" fill="#cce9ff"/>
          </g>
        </g>
        <g id="Group_243" data-name="Group 243" transform="translate(161.393 70.744)">
          <g id="Group_242" data-name="Group 242">
            <g id="Group_241" data-name="Group 241" transform="translate(25.036)">
              <path id="Path_349" data-name="Path 349" d="M1117.076,272.049a9.723,9.723,0,0,1-2.7.739,4.652,4.652,0,0,0,2.06-2.59,9.363,9.363,0,0,1-2.973,1.135,4.685,4.685,0,0,0-8.106,3.2,4.9,4.9,0,0,0,.108,1.07,13.267,13.267,0,0,1-9.661-4.9,4.689,4.689,0,0,0,1.439,6.266,4.632,4.632,0,0,1-2.118-.577v.052a4.706,4.706,0,0,0,3.754,4.6,4.661,4.661,0,0,1-1.23.155,4.131,4.131,0,0,1-.886-.081,4.731,4.731,0,0,0,4.378,3.264,9.407,9.407,0,0,1-5.809,2,8.778,8.778,0,0,1-1.122-.066,13.339,13.339,0,0,0,20.527-11.234c0-.207-.008-.406-.018-.606A9.158,9.158,0,0,0,1117.076,272.049Z" transform="translate(-1094.21 -269.85)" fill="#cce9ff"/>
            </g>
            <path id="Path_350" data-name="Path 350" d="M1040.215,295.161H1026.3a.586.586,0,0,1-.587-.587v-.467a.586.586,0,0,1,.587-.587h13.918a.586.586,0,0,1,.587.587v.467A.59.59,0,0,1,1040.215,295.161Z" transform="translate(-1018.632 -287.315)" fill="#cce9ff"/>
            <path id="Path_351" data-name="Path 351" d="M1057.552,329.681H1049.8a.586.586,0,0,1-.587-.587v-.467a.586.586,0,0,1,.587-.587h7.755a.586.586,0,0,1,.587.587v.467A.588.588,0,0,1,1057.552,329.681Z" transform="translate(-1035.971 -312.785)" fill="#cce9ff"/>
            <path id="Path_352" data-name="Path 352" d="M1020.294,312.421h-21a.586.586,0,0,1-.587-.587v-.467a.586.586,0,0,1,.587-.587h21a.586.586,0,0,1,.587.587v.467A.59.59,0,0,1,1020.294,312.421Z" transform="translate(-998.71 -300.05)" fill="#cce9ff"/>
          </g>
        </g>
        <g id="Group_244" data-name="Group 244" transform="translate(206.642 162.502)">
          <path id="Path_353" data-name="Path 353" d="M1314.589,622.857a13.269,13.269,0,0,1-3.683,1.009,6.358,6.358,0,0,0,2.81-3.531,12.768,12.768,0,0,1-4.053,1.547,6.392,6.392,0,0,0-11.055,4.37,6.611,6.611,0,0,0,.147,1.458,18.089,18.089,0,0,1-13.173-6.685,6.39,6.39,0,0,0,1.964,8.541,6.289,6.289,0,0,1-2.886-.786v.071a6.417,6.417,0,0,0,5.12,6.279,6.4,6.4,0,0,1-1.675.21,5.616,5.616,0,0,1-1.211-.11,6.453,6.453,0,0,0,5.972,4.451,12.84,12.84,0,0,1-7.925,2.726,12.19,12.19,0,0,1-1.528-.086,18,18,0,0,0,9.8,2.868c11.761,0,18.189-9.742,18.189-18.186,0-.283-.011-.556-.024-.826A12.669,12.669,0,0,0,1314.589,622.857Z" transform="translate(-1254.022 -619.86)" fill="#2a94f4"/>
          <path id="Path_354" data-name="Path 354" d="M1195.806,642.741H1172.3a.99.99,0,0,1-.991-.991v-.789a.99.99,0,0,1,.991-.991h23.505a.99.99,0,0,1,.991.991v.789A.988.988,0,0,1,1195.806,642.741Z" transform="translate(-1171.31 -634.698)" fill="#ffdb57"/>
          <path id="Path_355" data-name="Path 355" d="M1225.106,701.041h-13.095a.99.99,0,0,1-.991-.991v-.789a.99.99,0,0,1,.991-.991h13.095a.99.99,0,0,1,.991.991v.789A.992.992,0,0,1,1225.106,701.041Z" transform="translate(-1200.61 -677.714)" fill="#ffdb57"/>
          <path id="Path_356" data-name="Path 356" d="M1235.487,671.891h-9.406a.99.99,0,0,1-.991-.991v-.789a.99.99,0,0,1,.991-.991h9.406a.99.99,0,0,1,.991.991v.789A.988.988,0,0,1,1235.487,671.891Z" transform="translate(-1210.991 -656.206)" fill="#ffdb57"/>
        </g>
        <g id="Group_245" data-name="Group 245" transform="translate(250.066 73.166)">
          <path id="Path_357" data-name="Path 357" d="M1424.973,282.266a6.856,6.856,0,0,1-1.885.516,3.256,3.256,0,0,0,1.439-1.809,6.549,6.549,0,0,1-2.077.792,3.291,3.291,0,0,0-5.586,2.986,9.265,9.265,0,0,1-6.745-3.424,3.273,3.273,0,0,0,1.007,4.375,3.231,3.231,0,0,1-1.479-.4v.037a3.289,3.289,0,0,0,2.622,3.217,3.242,3.242,0,0,1-.857.108,3,3,0,0,1-.619-.055,3.308,3.308,0,0,0,3.059,2.281,6.58,6.58,0,0,1-4.058,1.395,6.434,6.434,0,0,1-.784-.045,9.315,9.315,0,0,0,14.335-7.844c0-.144-.005-.283-.013-.422A6.548,6.548,0,0,0,1424.973,282.266Z" transform="translate(-1390.119 -280.3)" fill="#cce9ff"/>
          <path id="Path_358" data-name="Path 358" d="M1353.1,317.53h-15.5a.653.653,0,0,0-.653.653v.519a.653.653,0,0,0,.653.653h15.5a.653.653,0,0,0,.653-.653v-.519A.651.651,0,0,0,1353.1,317.53Z" transform="translate(-1336.95 -307.453)" fill="#cce9ff"/>
          <path id="Path_359" data-name="Path 359" d="M1372.418,279.09h-8.635a.653.653,0,0,0-.653.653v.519a.653.653,0,0,0,.653.653h8.635a.653.653,0,0,0,.653-.653v-.519A.655.655,0,0,0,1372.418,279.09Z" transform="translate(-1356.267 -279.09)" fill="#cce9ff"/>
          <path id="Path_360" data-name="Path 360" d="M1379.266,298.31h-6.2a.653.653,0,0,0-.653.653v.519a.653.653,0,0,0,.653.653h6.2a.653.653,0,0,0,.653-.653v-.519A.653.653,0,0,0,1379.266,298.31Z" transform="translate(-1363.114 -293.271)" fill="#cce9ff"/>
        </g>
        <g id="Group_246" data-name="Group 246" transform="translate(0 134.199)">
          <path id="Path_361" data-name="Path 361" d="M471.113,515.056a6.858,6.858,0,0,1-1.885.516,3.254,3.254,0,0,0,1.439-1.809,6.546,6.546,0,0,1-2.076.792A3.291,3.291,0,0,0,463,517.542a9.265,9.265,0,0,1-6.745-3.424,3.274,3.274,0,0,0,1.007,4.375,3.229,3.229,0,0,1-1.479-.4v.037a3.289,3.289,0,0,0,2.622,3.217,3.24,3.24,0,0,1-.857.107,3,3,0,0,1-.619-.055,3.308,3.308,0,0,0,3.059,2.281,6.58,6.58,0,0,1-4.058,1.395,6.431,6.431,0,0,1-.784-.045,9.315,9.315,0,0,0,14.335-7.844c0-.144-.005-.283-.013-.422A6.589,6.589,0,0,0,471.113,515.056Z" transform="translate(-436.256 -513.095)" fill="#cce9ff"/>
          <path id="Path_362" data-name="Path 362" d="M399.232,513.725h-15.5a.653.653,0,0,1-.653-.653v-.519a.653.653,0,0,1,.653-.653h15.5a.653.653,0,0,1,.653.653v.519A.651.651,0,0,1,399.232,513.725Z" transform="translate(-383.08 -511.9)" fill="#cce9ff"/>
          <path id="Path_363" data-name="Path 363" d="M418.548,552.155h-8.636a.653.653,0,0,1-.653-.653v-.519a.653.653,0,0,1,.653-.653h8.636a.653.653,0,0,1,.653.653v.519A.653.653,0,0,1,418.548,552.155Z" transform="translate(-402.397 -540.255)" fill="#cce9ff"/>
          <path id="Path_364" data-name="Path 364" d="M425.4,532.935h-6.2a.653.653,0,0,1-.653-.653v-.519a.653.653,0,0,1,.653-.653h6.2a.653.653,0,0,1,.653.653v.519A.649.649,0,0,1,425.4,532.935Z" transform="translate(-409.244 -526.074)" fill="#cce9ff"/>
        </g>
      </g>
      <g id="Character" transform="translate(485.608 95.3)">
        <g id="Group_252" data-name="Group 252">
          <path id="Path_365" data-name="Path 365" d="M864.87,1020.418a13.2,13.2,0,0,0,5.919-.477q-.2-3.492-.4-6.981a1.779,1.779,0,0,0-.194-.852,1.589,1.589,0,0,0-1.117-.582c-1.612-.283-4.066-.372-4.121,1.646C864.894,1015.587,864.9,1018.006,864.87,1020.418Z" transform="translate(-841.093 -841.533)" fill="#ffe3ca"/>
          <path id="Path_366" data-name="Path 366" d="M974.665,1020.418a12.806,12.806,0,0,0,5.859-.477q-.645-3.492-1.292-6.981a1.964,1.964,0,0,0-.3-.852,1.845,1.845,0,0,0-1.19-.582c-1.649-.283-4.116-.372-3.911,1.646C974.07,1015.587,974.387,1018.006,974.665,1020.418Z" transform="translate(-921.477 -841.533)" fill="#ffe3ca"/>
          <path id="Path_367" data-name="Path 367" d="M883.159,654.372h0c-2.493-7.5-15.764-6.221-22.753-3.71-1.531.551-3.765,1.083-4.811,2.664a15.008,15.008,0,0,0-1.67,8.074,12.5,12.5,0,0,0-.26,1.536c-.92,8.979,1.521,68.759,2.428,82.176h6.116c.4-1.135,7.068-64.968,7.993-70.665.294,1.007,13.027,57.9,14.673,70.665h6.116C891.145,744,884.412,656.823,883.159,654.372Z" transform="translate(-832.676 -573.941)" fill="#0b4870" fill-rule="evenodd"/>
          <path id="Path_368" data-name="Path 368" d="M875.218,466.162c1.712,2.532,1.222,46.465,3.864,52.332a9.043,9.043,0,0,1,.991,2.821,2.489,2.489,0,0,1-1.34,2.532,4.652,4.652,0,0,1-1.919.26q-13.236-.087-26.473-.17a3.239,3.239,0,0,1-1.694-.317c-1.059-.661-.692-2.1-.312-3.2,2.546-7.351-3.17-45.3-1.9-52.985,3.115-3.8,5.6-6.449,18.231-6.449C873.522,460.985,873.684,463.889,875.218,466.162Z" transform="translate(-827.353 -435.437)" fill="#ffdb57"/>
          <path id="Path_369" data-name="Path 369" d="M807.718,576.75a.585.585,0,0,0-.018.149C807.705,576.85,807.713,576.8,807.718,576.75Z" transform="translate(-798.91 -520.849)" fill="#fe9ef2" fill-rule="evenodd"/>
          <g id="Group_247" data-name="Group 247" transform="translate(30.454)">
            <path id="Path_370" data-name="Path 370" d="M951.712,391.281c-.419.705-.954.514-.928-.3.086-2.6.178-3.007-1-5.338-.648-1.282-.855-1.392-.265-1.827C951.484,382.376,955.193,385.454,951.712,391.281Z" transform="translate(-933.749 -378.236)" fill="#0b4870" fill-rule="evenodd"/>
            <path id="Path_371" data-name="Path 371" d="M900.745,415.6c-.865-3.817-3.751-4.711-5.432-3.793-1.075,7.144-2.173,10.319-4.973,14.217,3.481,2.231,9.425,1.817,10.709,0C901.1,425.447,901.191,417.572,900.745,415.6Z" transform="translate(-890.34 -398.901)" fill="#fcd2b1"/>
            <path id="Path_372" data-name="Path 372" d="M911.95,382.4a5.944,5.944,0,0,1,9.936,1.355c1.772,3.7-.17,11.506-1.7,13.134-2.682,2.842-8.371-.414-9.162-2.546C909.858,391.222,909.729,385.147,911.95,382.4Z" transform="translate(-904.992 -375.893)" fill="#ffe3ca"/>
            <path id="Path_373" data-name="Path 373" d="M905.5,388.506a49.4,49.4,0,0,1-1.46,8.413c-.776-.32-1.764-2.54-3.23-2.456-.469.026-1.114.33-1.133-.608-.115-5.94-.349-5.639.71-6.182C902.72,386.471,905.205,387.444,905.5,388.506Z" transform="translate(-897.149 -380.931)" fill="#0b4870" fill-rule="evenodd"/>
            <path id="Path_374" data-name="Path 374" d="M894.079,367.385c4.847-3.4,12.8-4.693,15.1-3.337,3.427,2.013.907,7.765-.38,8.082-.587.144-1.125-.317-1.625-.658-2.37-1.615-4.493-.38-6.276-.052C897.736,372,889.95,370.285,894.079,367.385Z" transform="translate(-892.228 -363.518)" fill="#0b4870" fill-rule="evenodd"/>
            <path id="Path_375" data-name="Path 375" d="M899.334,406.818a3.752,3.752,0,0,0,.818,2.695c1.741,2.137,3.487-.752,3.083-2.551C902.753,404.818,899.581,404.212,899.334,406.818Z" transform="translate(-896.965 -394.197)" fill="#ffe3ca"/>
          </g>
          <path id="Path_376" data-name="Path 376" d="M988.805,1038.568a2.112,2.112,0,0,0-1.775-1.992,13.39,13.39,0,0,0-2.9-.066,7.837,7.837,0,0,1-6.73-4.155,1.983,1.983,0,0,0-.676-.9,1.3,1.3,0,0,0-1.408.259c-.393.323-.669.76-1.028,1.12a3.455,3.455,0,0,1-2.464.986c-.76-.01-1.61-.592-2.341-.207-.645.338-.818,1.229-.98,1.867-.28,1.1-.537,2.2-.8,3.3a4.544,4.544,0,0,0-.136.75h20.787A1.628,1.628,0,0,0,988.805,1038.568Z" transform="translate(-916.862 -856.265)" fill="#0b4870" fill-rule="evenodd"/>
          <path id="Path_377" data-name="Path 377" d="M871.226,1038.985a2.257,2.257,0,0,0-.781-1.992c-.414-.225-1.064-1.846-1.922-4.218-.393-1.085-2.585-1.39-3.678.48-.354.606-.684,1-1.083.986-.333-.011-.708-.593-1.028-.207a4.475,4.475,0,0,0-.43,1.867c-.123,1.1-.236,2.2-.354,3.3-.026.244-.052.5-.06.75h9.136A2.967,2.967,0,0,0,871.226,1038.985Z" transform="translate(-838.894 -856.681)" fill="#0b4870" fill-rule="evenodd"/>
          <path id="Path_378" data-name="Path 378" d="M1046.491,499.68l-11.451,7.209a21.641,21.641,0,0,0,.545,3.731c.265,1.311,4.153,1.064,4.994.419C1041.473,510.355,1046.774,509.66,1046.491,499.68Z" transform="translate(-966.651 -463.984)" fill="#ffe3ca"/>
          <path id="Path_379" data-name="Path 379" d="M1042.388,496.7h5.865a.893.893,0,0,0,.8-.629l3.581-12.447a.461.461,0,0,0-.454-.629h-5.865a.893.893,0,0,0-.8.629l-3.581,12.447A.463.463,0,0,0,1042.388,496.7Z" transform="translate(-971.721 -451.669)" fill="#d3d3d3"/>
          <path id="Path_380" data-name="Path 380" d="M1040.208,496.7h5.864a.893.893,0,0,0,.8-.629l3.581-12.447a.461.461,0,0,0-.454-.629h-5.865a.892.892,0,0,0-.8.629l-3.581,12.447A.462.462,0,0,0,1040.208,496.7Z" transform="translate(-970.113 -451.669)" fill="#f7f7f7"/>
          <path id="Path_381" data-name="Path 381" d="M1042.188,497.923h5.285a.81.81,0,0,0,.726-.566l3.227-11.22a.416.416,0,0,0-.409-.566h-5.285a.809.809,0,0,0-.726.566l-3.227,11.22A.415.415,0,0,0,1042.188,497.923Z" transform="translate(-971.608 -453.573)" fill="#2a94f4" fill-rule="evenodd"/>
          <path id="Path_382" data-name="Path 382" d="M1036,514.629c.868-1.059,2.071-2.8,2.614-3.45a3.964,3.964,0,0,0,.44-.5.5.5,0,0,0-.026-.616c-.212-.191-.548-.05-.792.1a6.559,6.559,0,0,0-2.978,2.826,4,4,0,0,0-.225,1.544S1036.051,514.778,1036,514.629Z" transform="translate(-966.648 -471.574)" fill="#ffe3ca"/>
          <path id="Path_383" data-name="Path 383" d="M791.9,488.41s-17,20.519-17.709,23.335c-.6,2.383,13.929,16.967,18.422,21.41a2.127,2.127,0,0,1,.223,2.768l-3.8,4.425a.472.472,0,0,0,.184.747h0a4.189,4.189,0,0,0,3.985-.477l1.274-.9a6.285,6.285,0,0,0,2.4-3.384h0a5.266,5.266,0,0,0-.847-4.611l-.776-1.033-11.459-17.9L796.6,495.682Z" transform="translate(-774.172 -455.668)" fill="#ffe3ca"/>
          <path id="Path_384" data-name="Path 384" d="M961.29,490.56l-3.82,9.163s2.926,21.563,8.439,24.963S981,504.8,981,504.8l-2.776-2.692-10.14,12.974Z" transform="translate(-909.417 -457.255)" fill="#ffe3ca"/>
          <path id="Path_385" data-name="Path 385" d="M834.459,463.93s-6.153.257-15.819,13.349l7.909,9.831,7.909-6.391S844.56,474.519,834.459,463.93Z" transform="translate(-806.982 -437.606)" fill="#ffdb57"/>
          <path id="Path_386" data-name="Path 386" d="M938.014,463.93s10.028,2.218,11.936,18.026l-9.524,3.531S935.542,466.213,938.014,463.93Z" transform="translate(-894.546 -437.606)" fill="#ffdb57"/>
          <g id="Group_251" data-name="Group 251" transform="translate(75.268 8.636)">
            <g id="Group_250" data-name="Group 250">
              <g id="Group_248" data-name="Group 248">
                <path id="Path_387" data-name="Path 387" d="M1084.672,398.8a10.407,10.407,0,0,1-2.879.789,4.967,4.967,0,0,0,2.2-2.761,9.922,9.922,0,0,1-3.167,1.209,4.995,4.995,0,0,0-8.641,3.416,5.192,5.192,0,0,0,.115,1.138,14.128,14.128,0,0,1-10.3-5.225,4.994,4.994,0,0,0,1.534,6.675,4.946,4.946,0,0,1-2.257-.616v.055a5.016,5.016,0,0,0,4,4.908,5.03,5.03,0,0,1-1.311.165,4.357,4.357,0,0,1-.946-.086,5.039,5.039,0,0,0,4.666,3.479c-1.7,1.329-2.553,4.3.275,4.3a14.119,14.119,0,0,0,14.217-14.214c0-.22-.008-.435-.018-.645A9.859,9.859,0,0,0,1084.672,398.8Z" transform="translate(-1061.28 -396.46)" fill="#2a94f4"/>
              </g>
              <g id="Group_249" data-name="Group 249" transform="translate(2.207 17.174)">
                <path id="Path_388" data-name="Path 388" d="M1079.954,464.01c-2.318,1.812-5.592,4.344-8.431,6.441a1.14,1.14,0,0,1-1.672-1.473,24.982,24.982,0,0,0,2.37-5.634,1.136,1.136,0,0,1,1-.842l5.933-.527A1.14,1.14,0,0,1,1079.954,464.01Z" transform="translate(-1069.698 -461.97)" fill="#2a94f4"/>
              </g>
            </g>
          </g>
        </g>
      </g>
    </g>
  </g>
</svg>
