<svg xmlns="http://www.w3.org/2000/svg" viewBox="0 0 178.73 158.24"><defs><style>.cls-1{fill:#ffdb57;}.cls-2{fill:#ffc02e;}.cls-3{fill:#1da1f2;}</style></defs><g id="Layer_2" data-name="Layer 2"><g id="Layer_2-2" data-name="Layer 2"><path class="cls-1" d="M134.05,60.59a6.13,6.13,0,0,1,.44,1.89,4.88,4.88,0,0,1,2.34-.56h4a5.11,5.11,0,0,1,1.11-4c.8-1,1.63-2,2.45-3a32.1,32.1,0,0,1,8-19.72,9.79,9.79,0,0,0-1.56,1.26L137.59,49.6a4.89,4.89,0,0,1,.1,6.91C136.44,57.85,135.22,59.2,134.05,60.59Z"/><path class="cls-1" d="M145.81,71.92h-9A4.68,4.68,0,0,1,132,67.27a33,33,0,0,1-5.54,3.85,4.85,4.85,0,0,1-7.22-3.19L73.71,113.48a9.65,9.65,0,0,0-1.31,1.63l.37-.37a9.61,9.61,0,0,1,13.59,0l1.69,1.69a9.61,9.61,0,0,1,1.3,11.95Z"/><path class="cls-2" d="M106.27,36.07l-9.54-3c-.74-.23-1.44-.44-2.1-.66L35.46,91.58a9.6,9.6,0,0,1,11.23,1.73L48.38,95a9.6,9.6,0,0,1,0,13.58l-7.69,7.69A9.65,9.65,0,0,0,43,114.55L104.62,53C104.72,47.31,105.76,41.71,106.27,36.07Z"/><rect class="cls-1" x="35.89" y="4.63" width="21.6" height="121.72" rx="9.61" transform="translate(59.99 -13.83) rotate(45)"/><rect class="cls-1" x="53.05" y="51.7" width="21.6" height="113.14" rx="9.61" transform="translate(95.25 -13.44) rotate(45)"/><path class="cls-2" d="M163.81,71.58a4.83,4.83,0,0,1-2.76,2c-2.93.71-5.84.32-8.81.29a4.88,4.88,0,0,1-3.55-1.57l-.56.14a4.89,4.89,0,0,1-2.91-.1L77.39,140.15a9.61,9.61,0,0,0,0,13.59l1.69,1.69a9.6,9.6,0,0,0,13.58,0L163.39,84.7A9.61,9.61,0,0,0,163.81,71.58Z"/><path class="cls-3" d="M154.09,47.42,145.6,67l12.77,1.71q9.1,1.22,7.82,10.84-.66,4.91-3.38,7.3a8.53,8.53,0,0,1-7.1,1.81l-18.55-2.48-4.82,10.76a15.13,15.13,0,0,1-6.21,7.09,12.5,12.5,0,0,1-8,1.7,9.2,9.2,0,0,1-6-3.21,8.46,8.46,0,0,1-1.75-6.91,16.59,16.59,0,0,1,1-3.78l3.82-8.57L94.81,80.47,90,91.22a15.09,15.09,0,0,1-6.2,7.1,12.5,12.5,0,0,1-8,1.7,9.2,9.2,0,0,1-6-3.21,8.46,8.46,0,0,1-1.75-6.91,16.59,16.59,0,0,1,1-3.78l3.82-8.58-5.07-.67a8.81,8.81,0,0,1-6.47-3.63q-2.09-3-1.43-7.94.63-4.72,3.41-6.85a9.33,9.33,0,0,1,7.15-1.53l10.85,1.45L90,38.86l-9.8-1.31a8.83,8.83,0,0,1-6.47-3.62q-2.08-3-1.43-7.94.63-4.72,3.41-6.85A9.29,9.29,0,0,1,82.9,17.6l15.58,2.08,4.87-11.1a13.3,13.3,0,0,1,6-6.95,13.08,13.08,0,0,1,8-1.52,10.5,10.5,0,0,1,6.45,3.09,7.2,7.2,0,0,1,1.93,6.22,10,10,0,0,1-1,3.08l-4.38,10.11,20.48,2.73,4.87-11.1a13.3,13.3,0,0,1,6-6.95,13.08,13.08,0,0,1,8-1.52,10.48,10.48,0,0,1,6.45,3.09A7.22,7.22,0,0,1,168,15.09a10.06,10.06,0,0,1-.95,3.08l-4.38,10.1,8.05,1.07q9.1,1.21,7.82,10.85c-.44,3.26-1.57,5.7-3.38,7.29a8.53,8.53,0,0,1-7.1,1.81Zm-21.7-2.9-20.65-2.76-8.69,19.53L123.72,64Z"/><rect class="cls-2" x="5.07" y="114.83" width="15.24" height="27.58" rx="7.62" transform="translate(94.66 28.69) rotate(45)"/></g></g></svg>