<svg xmlns="http://www.w3.org/2000/svg" width="87.325" height="84.182" viewBox="0 0 87.325 84.182">
  <g id="Group_292" data-name="Group 292" transform="translate(-497 -282.481)">
    <g id="hashtag-2" transform="translate(497 298.145)">
      <path id="Path_19" data-name="Path 19" d="M392.535,300.847H374.078L376.65,288h15.885Zm0,0" transform="translate(-324.018 -249.459)" fill="#1da1f2"/>
      <path id="Path_20" data-name="Path 20" d="M29.7,373.412H12.48L16.761,352H33.976Zm0,0" transform="translate(-10.81 -304.894)" fill="#1da1f2"/>
      <path id="Path_22" data-name="Path 22" d="M269.7,234.823H252.48L261.043,192h17.215Zm0,0" transform="translate(-218.693 -166.306)" fill="#1da1f2"/>
      <g id="Group_16" data-name="Group 16" transform="translate(0 17.129)">
        <path id="Path_23" data-name="Path 23" d="M13.744,140.847H0V128H16.316Zm0,0" transform="translate(0 -128)" fill="#1da1f2"/>
        <path id="Path_24" data-name="Path 24" d="M212.37,140.847H166.078L168.65,128h43.72Zm0,0" transform="translate(-143.853 -128)" fill="#1da1f2"/>
      </g>
      <path id="Path_27" data-name="Path 27" d="M68.11,42.823H50.895L59.457,0H76.672Zm0,0" transform="translate(-44.084)" fill="#1da1f2"/>
      <path id="Path_28" data-name="Path 28" d="M39.783,288H0v12.847H37.213Zm0,0" transform="translate(0 -249.459)" fill="#1da1f2"/>
    </g>
    <g id="crown" transform="translate(541.273 279.155) rotate(34)">
      <path id="Path_11" data-name="Path 11" d="M41.149,24.173H6.308a1.608,1.608,0,0,1-1.329-.7C.382,16.729.029,3.762,0,1.837c0-.075,0-.152,0-.228A1.609,1.609,0,0,1,1.606,0h0A1.609,1.609,0,0,1,3.218,1.6c0,.011,0,.106,0,.274a8.526,8.526,0,0,0,17.049-.268A1.609,1.609,0,0,1,21.88,0h3.7a1.609,1.609,0,0,1,1.609,1.609,8.527,8.527,0,0,0,17.049.256c0-.161,0-.251,0-.261A1.609,1.609,0,0,1,45.848,0h0a1.609,1.609,0,0,1,1.606,1.609c0,.076,0,.152,0,.228-.027,1.925-.38,14.892-4.976,21.633A1.609,1.609,0,0,1,41.149,24.173Zm0,0" transform="translate(3.589 5.49)" fill="#fff780"/>
      <path id="Path_12" data-name="Path 12" d="M22.122,0h0A1.609,1.609,0,0,0,20.51,1.6c0,.011,0,.1,0,.262A8.526,8.526,0,0,1,3.457,1.609,1.609,1.609,0,0,0,1.848,0H0V24.172H17.42a1.609,1.609,0,0,0,1.329-.7c4.6-6.741,4.95-19.709,4.976-21.633,0-.075,0-.152,0-.228A1.61,1.61,0,0,0,22.122,0Zm0,0" transform="translate(27.318 5.49)" fill="#fff780"/>
      <path id="Path_13" data-name="Path 13" d="M5.2,0a5.2,5.2,0,1,0,5.2,5.2A5.2,5.2,0,0,0,5.2,0Zm0,0" transform="translate(22.119 0)" fill="#ffc02e"/>
      <path id="Path_14" data-name="Path 14" d="M0,0V10.4A5.2,5.2,0,0,0,5.2,5.2,5.2,5.2,0,0,0,0,0ZM0,0" transform="translate(27.318 0)" fill="#ffc02e"/>
      <path id="Path_15" data-name="Path 15" d="M5.2,0a5.2,5.2,0,1,0,5.2,5.2A5.2,5.2,0,0,0,5.2,0Zm0,0" transform="translate(0 4.012)" fill="#ffc02e"/>
      <path id="Path_16" data-name="Path 16" d="M5.2,0a5.2,5.2,0,1,0,5.2,5.2A5.2,5.2,0,0,0,5.2,0Zm0,0" transform="translate(44.239 4.012)" fill="#ffc02e"/>
      <path id="Path_17" data-name="Path 17" d="M36.45,6.407H1.609A1.609,1.609,0,0,1,0,4.8V0H38.059V4.8A1.609,1.609,0,0,1,36.45,6.407Zm0,0" transform="translate(8.288 28.534)" fill="#ffc02e"/>
      <path id="Path_18" data-name="Path 18" d="M0,6.407H17.42A1.609,1.609,0,0,0,19.029,4.8V0H0Zm0,0" transform="translate(27.318 28.534)" fill="#ffc02e"/>
    </g>
  </g>
</svg>
