<svg id="Group_293" data-name="Group 293" xmlns="http://www.w3.org/2000/svg" width="49.136" height="40.878" viewBox="0 0 49.136 40.878">
  <path id="Path_485" data-name="Path 485" d="M48.351,59.876,30.606,42.131a2.7,2.7,0,0,0-3.8,0l-1.611,1.611a2.669,2.669,0,0,0-.785,1.9,2.722,2.722,0,0,0,.785,1.924L35.544,57.942H2.655A2.624,2.624,0,0,0,0,60.587v2.278a2.725,2.725,0,0,0,2.655,2.761H35.661L25.192,76.059a2.663,2.663,0,0,0,0,3.776L26.8,81.441a2.7,2.7,0,0,0,3.8,0L48.351,63.693a2.712,2.712,0,0,0,0-3.817Z" transform="translate(0 -41.346)" fill="#fff"/>
</svg>
