<svg xmlns="http://www.w3.org/2000/svg" width="490.984" height="464.776" viewBox="0 0 490.984 464.776">
  <g id="twitter" transform="translate(-329)">
    <g id="Background" transform="translate(329)">
      <path id="Path_52" data-name="Path 52" d="M576.713,456.549c-7.3-1.153-91.333-.555-136.231-.146a27.644,27.644,0,0,1-27.9-27.646h0a27.65,27.65,0,0,1,27.65-27.65h57.348a23.165,23.165,0,0,0,23.166-23.166h0a23.165,23.165,0,0,0-23.166-23.166H400.718A71.717,71.717,0,0,1,329,283.058h0a71.717,71.717,0,0,1,71.718-71.718h86.758a36.986,36.986,0,0,0,36.984-36.984h0a36.986,36.986,0,0,0-36.984-36.984H428.669a37.617,37.617,0,0,1-37.617-37.617h0a37.617,37.617,0,0,1,37.617-37.617h101.39a10.151,10.151,0,0,0,10.152-10.152h0a10.151,10.151,0,0,0-10.152-10.152H461.672A12.712,12.712,0,0,1,448.96,29.123h0A12.712,12.712,0,0,1,461.672,16.41H594.211c121.578,0,220.132,98.558,220.132,220.132h0c0,121.578-98.558,220.132-220.132,220.132H578.176A8.763,8.763,0,0,1,576.713,456.549Z" transform="translate(-329 -9.348)" fill="#fff" opacity="0.244"/>
      <g id="Group_27" data-name="Group 27" transform="translate(93.149 137.974)">
        <path id="Path_53" data-name="Path 53" d="M729.186,325.21a20.434,20.434,0,0,1-5.651,1.549,9.746,9.746,0,0,0,4.316-5.422,19.641,19.641,0,0,1-6.219,2.375,9.81,9.81,0,0,0-16.969,6.709,10,10,0,0,0,.228,2.238A27.761,27.761,0,0,1,684.675,322.4a9.811,9.811,0,0,0,3.012,13.108,9.678,9.678,0,0,1-4.433-1.209v.108a9.855,9.855,0,0,0,7.858,9.64,9.762,9.762,0,0,1-2.573.323,8.591,8.591,0,0,1-1.859-.168,9.9,9.9,0,0,0,9.166,6.834,19.693,19.693,0,0,1-12.162,4.183,18.274,18.274,0,0,1-2.345-.133,27.621,27.621,0,0,0,15.049,4.4c18.049,0,27.917-14.95,27.917-27.912,0-.435-.013-.852-.034-1.27A19.629,19.629,0,0,0,729.186,325.21Z" transform="translate(-622.86 -320.61)" fill="#2a94f4"/>
        <path id="Path_54" data-name="Path 54" d="M595.078,395.01h-48a1.625,1.625,0,0,0-1.627,1.627v2.32a1.625,1.625,0,0,0,1.627,1.627h48a1.625,1.625,0,0,0,1.627-1.627v-2.32A1.625,1.625,0,0,0,595.078,395.01Z" transform="translate(-545.45 -362.992)" fill="#ffdb57"/>
        <path id="Path_55" data-name="Path 55" d="M622.776,323.59H595.707a1.625,1.625,0,0,0-1.627,1.627v2.32a1.625,1.625,0,0,0,1.627,1.627h27.069a1.625,1.625,0,0,0,1.627-1.627v-2.32A1.628,1.628,0,0,0,622.776,323.59Z" transform="translate(-573.152 -322.308)" fill="#ffdb57"/>
        <path id="Path_56" data-name="Path 56" d="M632.612,359.3H612.967a1.625,1.625,0,0,0-1.627,1.627v2.32a1.625,1.625,0,0,0,1.627,1.627h19.645a1.625,1.625,0,0,0,1.627-1.627v-2.32A1.626,1.626,0,0,0,632.612,359.3Z" transform="translate(-582.984 -342.65)" fill="#ffdb57"/>
      </g>
      <g id="Group_28" data-name="Group 28" transform="translate(111.056 322.623)">
        <path id="Path_57" data-name="Path 57" d="M711,752.783a13.942,13.942,0,0,1-3.813,1.046,6.555,6.555,0,0,0,2.909-3.658,13.239,13.239,0,0,1-4.2,1.6,6.65,6.65,0,0,0-11.288,6.038,18.728,18.728,0,0,1-13.638-6.92,6.623,6.623,0,0,0,2.036,8.844,6.563,6.563,0,0,1-2.991-.813v.073a6.649,6.649,0,0,0,5.3,6.5,6.65,6.65,0,0,1-1.734.219,6.029,6.029,0,0,1-1.252-.112,6.679,6.679,0,0,0,6.184,4.609,13.3,13.3,0,0,1-8.2,2.823,12.778,12.778,0,0,1-1.584-.09,18.629,18.629,0,0,0,10.148,2.969c12.175,0,18.832-10.083,18.832-18.828,0-.293-.009-.577-.026-.856A13.425,13.425,0,0,0,711,752.783Z" transform="translate(-639.28 -749.68)" fill="#2a94f4"/>
        <path id="Path_58" data-name="Path 58" d="M620.137,799.86H588.558a1.5,1.5,0,0,0-1.5,1.5v.762a1.5,1.5,0,0,0,1.5,1.5h31.579a1.5,1.5,0,0,0,1.5-1.5v-.762A1.5,1.5,0,0,0,620.137,799.86Z" transform="translate(-587.06 -778.265)" fill="#ffdb57"/>
        <path id="Path_59" data-name="Path 59" d="M638.817,751.69H621.358a1.5,1.5,0,0,0-1.5,1.5v.762a1.5,1.5,0,0,0,1.5,1.5h17.459a1.5,1.5,0,0,0,1.5-1.5v-.762A1.5,1.5,0,0,0,638.817,751.69Z" transform="translate(-605.745 -750.825)" fill="#ffdb57"/>
        <path id="Path_60" data-name="Path 60" d="M645.452,775.78H633a1.5,1.5,0,0,0-1.5,1.5v.762a1.5,1.5,0,0,0,1.5,1.5h12.454a1.5,1.5,0,0,0,1.5-1.5v-.762A1.5,1.5,0,0,0,645.452,775.78Z" transform="translate(-612.375 -764.548)" fill="#ffdb57"/>
      </g>
      <g id="Group_29" data-name="Group 29" transform="translate(229.191)">
        <path id="Path_61" data-name="Path 61" d="M1127.023,7.2a31.906,31.906,0,0,1-8.844,2.423,15.256,15.256,0,0,0,6.752-8.482,30.631,30.631,0,0,1-9.734,3.714,15.345,15.345,0,0,0-26.544,10.5,15.7,15.7,0,0,0,.357,3.5A43.454,43.454,0,0,1,1057.376,2.8a15.356,15.356,0,0,0,4.717,20.515,15.155,15.155,0,0,1-6.933-1.889v.168a15.415,15.415,0,0,0,12.295,15.079,15.386,15.386,0,0,1-4.024.5,13.518,13.518,0,0,1-2.9-.263,15.488,15.488,0,0,0,14.339,10.69,30.84,30.84,0,0,1-19.03,6.546,28.73,28.73,0,0,1-3.675-.211,43.2,43.2,0,0,0,23.544,6.886c28.244,0,43.685-23.394,43.685-43.676,0-.68-.022-1.334-.056-1.984A30.416,30.416,0,0,0,1127.023,7.2Z" transform="translate(-970.14)" fill="#2a94f4"/>
        <path id="Path_62" data-name="Path 62" d="M962.946,52.585H917.364a1.923,1.923,0,0,1-1.924-1.924V49.134a1.923,1.923,0,0,1,1.924-1.924h45.582a1.923,1.923,0,0,1,1.924,1.924v1.528A1.923,1.923,0,0,1,962.946,52.585Z" transform="translate(-892.257 -26.893)" fill="#ffdb57"/>
        <path id="Path_63" data-name="Path 63" d="M989.658,121.455H964.264a1.923,1.923,0,0,1-1.924-1.924V118a1.923,1.923,0,0,1,1.924-1.924h25.395A1.923,1.923,0,0,1,991.582,118v1.528A1.923,1.923,0,0,1,989.658,121.455Z" transform="translate(-918.974 -66.125)" fill="#ffdb57"/>
        <path id="Path_64" data-name="Path 64" d="M932.259,87.015H863.494a1.923,1.923,0,0,1-1.924-1.924V83.564a1.923,1.923,0,0,1,1.924-1.924h68.765a1.923,1.923,0,0,1,1.924,1.924v1.528A1.923,1.923,0,0,1,932.259,87.015Z" transform="translate(-861.57 -46.506)" fill="#ffdb57"/>
      </g>
      <g id="Group_32" data-name="Group 32" transform="translate(117.248 15.17)">
        <g id="Group_31" data-name="Group 31">
          <g id="Group_30" data-name="Group 30" transform="translate(41.098)">
            <path id="Path_65" data-name="Path 65" d="M734.485,38.861a15.956,15.956,0,0,1-4.433,1.214,7.637,7.637,0,0,0,3.383-4.252,15.368,15.368,0,0,1-4.88,1.863,7.691,7.691,0,0,0-13.306,5.259,8.047,8.047,0,0,0,.176,1.756,21.779,21.779,0,0,1-15.858-8.048,7.7,7.7,0,0,0,2.363,10.285,7.6,7.6,0,0,1-3.477-.947v.086a7.726,7.726,0,0,0,6.163,7.557,7.652,7.652,0,0,1-2.018.254,6.78,6.78,0,0,1-1.455-.133,7.767,7.767,0,0,0,7.187,5.358,15.443,15.443,0,0,1-9.536,3.279,14.407,14.407,0,0,1-1.842-.108,21.641,21.641,0,0,0,11.8,3.451c14.154,0,21.9-11.727,21.9-21.892,0-.34-.013-.667-.03-.994A15.159,15.159,0,0,0,734.485,38.861Z" transform="translate(-696.95 -35.25)" fill="#cce9ff"/>
          </g>
          <path id="Path_66" data-name="Path 66" d="M652.261,61.6H629.414a.962.962,0,0,1-.964-.964v-.766a.962.962,0,0,1,.964-.964h22.847a.962.962,0,0,1,.964.964v.766A.965.965,0,0,1,652.261,61.6Z" transform="translate(-616.831 -48.728)" fill="#cce9ff"/>
          <path id="Path_67" data-name="Path 67" d="M665.644,96.124h-12.73a.962.962,0,0,1-.964-.964v-.766a.962.962,0,0,1,.964-.964h12.73a.962.962,0,0,1,.964.964v.766A.962.962,0,0,1,665.644,96.124Z" transform="translate(-630.217 -68.392)" fill="#cce9ff"/>
          <path id="Path_68" data-name="Path 68" d="M636.881,78.864H602.414a.962.962,0,0,1-.964-.964v-.766a.962.962,0,0,1,.964-.964h34.467a.962.962,0,0,1,.964.964V77.9A.965.965,0,0,1,636.881,78.864Z" transform="translate(-601.45 -58.56)" fill="#cce9ff"/>
        </g>
      </g>
      <g id="Group_35" data-name="Group 35" transform="translate(288.208 116.129)">
        <g id="Group_34" data-name="Group 34">
          <g id="Group_33" data-name="Group 33" transform="translate(41.098)">
            <path id="Path_69" data-name="Path 69" d="M1131.745,273.461a15.954,15.954,0,0,1-4.433,1.214,7.636,7.636,0,0,0,3.383-4.252,15.369,15.369,0,0,1-4.88,1.863,7.691,7.691,0,0,0-13.306,5.259,8.05,8.05,0,0,0,.177,1.756,21.779,21.779,0,0,1-15.858-8.048,7.7,7.7,0,0,0,2.363,10.285,7.6,7.6,0,0,1-3.477-.947v.086a7.726,7.726,0,0,0,6.163,7.557,7.652,7.652,0,0,1-2.018.254,6.777,6.777,0,0,1-1.455-.133,7.767,7.767,0,0,0,7.187,5.358,15.443,15.443,0,0,1-9.536,3.279,14.408,14.408,0,0,1-1.842-.108,21.642,21.642,0,0,0,11.8,3.451c14.154,0,21.9-11.727,21.9-21.892,0-.34-.013-.667-.03-.994A15.029,15.029,0,0,0,1131.745,273.461Z" transform="translate(-1094.21 -269.85)" fill="#cce9ff"/>
          </g>
          <path id="Path_70" data-name="Path 70" d="M1049.521,296.214h-22.847a.962.962,0,0,1-.964-.964v-.766a.962.962,0,0,1,.964-.964h22.847a.962.962,0,0,1,.964.964v.766A.968.968,0,0,1,1049.521,296.214Z" transform="translate(-1014.091 -283.334)" fill="#cce9ff"/>
          <path id="Path_71" data-name="Path 71" d="M1062.9,330.734h-12.73a.962.962,0,0,1-.964-.964V329a.962.962,0,0,1,.964-.964h12.73a.962.962,0,0,1,.964.964v.766A.965.965,0,0,1,1062.9,330.734Z" transform="translate(-1027.478 -302.998)" fill="#cce9ff"/>
          <path id="Path_72" data-name="Path 72" d="M1034.141,313.474H999.674a.962.962,0,0,1-.964-.964v-.766a.962.962,0,0,1,.964-.964h34.467a.962.962,0,0,1,.964.964v.766A.968.968,0,0,1,1034.141,313.474Z" transform="translate(-998.71 -293.166)" fill="#cce9ff"/>
        </g>
      </g>
      <g id="Group_36" data-name="Group 36" transform="translate(362.487 266.756)">
        <path id="Path_73" data-name="Path 73" d="M1334.591,624.779a21.775,21.775,0,0,1-6.046,1.657,10.437,10.437,0,0,0,4.613-5.8,20.957,20.957,0,0,1-6.653,2.539,10.492,10.492,0,0,0-18.148,7.174,10.844,10.844,0,0,0,.241,2.393,29.7,29.7,0,0,1-21.625-10.974,10.489,10.489,0,0,0,3.223,14.021,10.322,10.322,0,0,1-4.738-1.291v.116a10.534,10.534,0,0,0,8.4,10.307,10.512,10.512,0,0,1-2.75.344,9.221,9.221,0,0,1-1.988-.181,10.592,10.592,0,0,0,9.8,7.307,21.077,21.077,0,0,1-13.009,4.476,20.008,20.008,0,0,1-2.509-.142,29.554,29.554,0,0,0,16.1,4.708c19.305,0,29.857-15.992,29.857-29.853,0-.465-.017-.912-.039-1.356A20.8,20.8,0,0,0,1334.591,624.779Z" transform="translate(-1235.168 -619.86)" fill="#2a94f4"/>
        <path id="Path_74" data-name="Path 74" d="M1211.522,644.519h-38.585a1.625,1.625,0,0,1-1.627-1.627v-1.3a1.625,1.625,0,0,1,1.627-1.627h38.585a1.625,1.625,0,0,1,1.627,1.627v1.3A1.623,1.623,0,0,1,1211.522,644.519Z" transform="translate(-1171.31 -631.316)" fill="#ffdb57"/>
        <path id="Path_75" data-name="Path 75" d="M1234.143,702.819h-21.5a1.625,1.625,0,0,1-1.627-1.627v-1.3a1.625,1.625,0,0,1,1.627-1.627h21.5a1.625,1.625,0,0,1,1.627,1.627v1.3A1.628,1.628,0,0,1,1234.143,702.819Z" transform="translate(-1193.931 -664.526)" fill="#ffdb57"/>
        <path id="Path_76" data-name="Path 76" d="M1242.158,673.669h-15.441a1.626,1.626,0,0,1-1.627-1.627v-1.3a1.625,1.625,0,0,1,1.627-1.627h15.441a1.626,1.626,0,0,1,1.627,1.627v1.3A1.623,1.623,0,0,1,1242.158,673.669Z" transform="translate(-1201.946 -647.921)" fill="#ffdb57"/>
      </g>
      <g id="Group_37" data-name="Group 37" transform="translate(433.769 120.106)">
        <path id="Path_77" data-name="Path 77" d="M1435.214,283.252a11.252,11.252,0,0,1-3.094.848,5.342,5.342,0,0,0,2.363-2.969,10.743,10.743,0,0,1-3.408,1.3,5.374,5.374,0,0,0-9.3,3.675,5.443,5.443,0,0,0,.125,1.227,15.208,15.208,0,0,1-11.073-5.62,5.374,5.374,0,0,0,1.653,7.182,5.3,5.3,0,0,1-2.427-.663v.06a5.4,5.4,0,0,0,4.3,5.28,5.321,5.321,0,0,1-1.407.176,4.93,4.93,0,0,1-1.016-.09,5.431,5.431,0,0,0,5.022,3.744,10.8,10.8,0,0,1-6.662,2.289,10.55,10.55,0,0,1-1.287-.073,15.292,15.292,0,0,0,23.531-12.876c0-.237-.009-.465-.022-.693A10.745,10.745,0,0,0,1435.214,283.252Z" transform="translate(-1377.999 -280.024)" fill="#cce9ff"/>
        <path id="Path_78" data-name="Path 78" d="M1363.464,317.53h-25.442a1.072,1.072,0,0,0-1.072,1.072v.852a1.072,1.072,0,0,0,1.072,1.072h25.442a1.072,1.072,0,0,0,1.072-1.072V318.6A1.069,1.069,0,0,0,1363.464,317.53Z" transform="translate(-1336.95 -300.987)" fill="#cce9ff"/>
        <path id="Path_79" data-name="Path 79" d="M1378.377,279.09H1364.2a1.072,1.072,0,0,0-1.072,1.072v.852a1.072,1.072,0,0,0,1.072,1.072h14.176a1.072,1.072,0,0,0,1.072-1.072v-.852A1.074,1.074,0,0,0,1378.377,279.09Z" transform="translate(-1351.864 -279.09)" fill="#cce9ff"/>
        <path id="Path_80" data-name="Path 80" d="M1383.664,298.31h-10.182a1.072,1.072,0,0,0-1.072,1.072v.852a1.072,1.072,0,0,0,1.072,1.072h10.182a1.072,1.072,0,0,0,1.072-1.072v-.852A1.072,1.072,0,0,0,1383.664,298.31Z" transform="translate(-1357.15 -290.039)" fill="#cce9ff"/>
      </g>
      <g id="Group_38" data-name="Group 38" transform="translate(23.273 220.295)">
        <path id="Path_81" data-name="Path 81" d="M481.354,516.042a11.246,11.246,0,0,1-3.094.848,5.342,5.342,0,0,0,2.363-2.969,10.744,10.744,0,0,1-3.408,1.3,5.374,5.374,0,0,0-9.3,3.675,5.439,5.439,0,0,0,.125,1.226,15.208,15.208,0,0,1-11.073-5.62,5.374,5.374,0,0,0,1.653,7.182,5.3,5.3,0,0,1-2.427-.663v.06a5.4,5.4,0,0,0,4.3,5.28,5.321,5.321,0,0,1-1.407.176,4.929,4.929,0,0,1-1.016-.09,5.431,5.431,0,0,0,5.022,3.744,10.8,10.8,0,0,1-6.662,2.289,10.55,10.55,0,0,1-1.287-.073,15.292,15.292,0,0,0,23.531-12.876c0-.237-.009-.465-.021-.693A10.813,10.813,0,0,0,481.354,516.042Z" transform="translate(-424.135 -512.823)" fill="#cce9ff"/>
        <path id="Path_82" data-name="Path 82" d="M409.594,514.9H384.152a1.072,1.072,0,0,1-1.072-1.072v-.852a1.072,1.072,0,0,1,1.072-1.072h25.442a1.072,1.072,0,0,1,1.072,1.072v.852A1.069,1.069,0,0,1,409.594,514.9Z" transform="translate(-383.08 -511.9)" fill="#cce9ff"/>
        <path id="Path_83" data-name="Path 83" d="M424.507,553.325H410.332a1.072,1.072,0,0,1-1.072-1.072V551.4a1.072,1.072,0,0,1,1.072-1.072h14.176a1.072,1.072,0,0,1,1.072,1.072v.852A1.072,1.072,0,0,1,424.507,553.325Z" transform="translate(-397.993 -533.792)" fill="#cce9ff"/>
        <path id="Path_84" data-name="Path 84" d="M429.794,534.105H419.612a1.072,1.072,0,0,1-1.072-1.072v-.852a1.072,1.072,0,0,1,1.072-1.072h10.182a1.072,1.072,0,0,1,1.072,1.072v.852A1.066,1.066,0,0,1,429.794,534.105Z" transform="translate(-403.28 -522.843)" fill="#cce9ff"/>
      </g>
      <ellipse id="Ellipse_9" data-name="Ellipse 9" cx="105.62" cy="7.501" rx="105.62" ry="7.501" transform="translate(159.879 449.774)" fill="#2a94f4" opacity="0.1"/>
    </g>
    <g id="Character" transform="translate(520.579 156.439)">
      <g id="Group_44" data-name="Group 44" transform="translate(0)">
        <path id="Path_85" data-name="Path 85" d="M864.87,1026.22a21.672,21.672,0,0,0,9.717-.783q-.329-5.732-.658-11.46a2.919,2.919,0,0,0-.318-1.4,2.609,2.609,0,0,0-1.833-.955c-2.647-.465-6.675-.611-6.765,2.7C864.909,1018.288,864.922,1022.261,864.87,1026.22Z" transform="translate(-825.838 -732.571)" fill="#ffe3ca"/>
        <path id="Path_86" data-name="Path 86" d="M975.211,1026.22a21.019,21.019,0,0,0,9.618-.783q-1.059-5.732-2.122-11.46a3.222,3.222,0,0,0-.5-1.4,3.028,3.028,0,0,0-1.954-.955c-2.707-.465-6.756-.611-6.421,2.7C974.234,1018.288,974.755,1022.261,975.211,1026.22Z" transform="translate(-887.899 -732.571)" fill="#ffe3ca"/>
        <path id="Path_87" data-name="Path 87" d="M902.211,658.007h0c-4.093-12.312-25.877-10.212-37.35-6.089-2.513.9-6.18,1.777-7.9,4.372-1.536,2.324-3.137,8.022-2.741,13.255a20.524,20.524,0,0,0-.426,2.522c-1.51,14.739,2.5,112.872,3.985,134.9h10.04c.65-1.863,11.6-106.649,13.121-116,.482,1.653,21.384,95.051,24.087,116h10.04C915.32,805.135,904.268,662.031,902.211,658.007Z" transform="translate(-819.34 -525.976)" fill="#0b4870" fill-rule="evenodd"/>
        <path id="Path_88" data-name="Path 88" d="M893.8,469.481c2.81,4.157,2.005,76.275,6.343,85.906a14.844,14.844,0,0,1,1.627,4.631,4.085,4.085,0,0,1-2.2,4.157,7.639,7.639,0,0,1-3.15.426q-21.728-.142-43.457-.28a5.317,5.317,0,0,1-2.78-.521c-1.739-1.084-1.136-3.443-.512-5.246,4.179-12.067-5.2-74.356-3.12-86.978,5.112-6.24,9.2-10.587,29.926-10.587C891.018,460.981,891.285,465.75,893.8,469.481Z" transform="translate(-815.231 -419.043)" fill="#ffdb57"/>
        <path id="Path_89" data-name="Path 89" d="M807.73,576.75a.959.959,0,0,0-.03.245C807.709,576.914,807.722,576.832,807.73,576.75Z" transform="translate(-793.271 -484.986)" fill="#fe9ef2" fill-rule="evenodd"/>
        <g id="Group_39" data-name="Group 39" transform="translate(49.993)">
          <path id="Path_90" data-name="Path 90" d="M953.341,396.3c-.688,1.158-1.566.844-1.523-.491.142-4.269.293-4.936-1.64-8.762-1.063-2.1-1.4-2.285-.435-3C952.967,381.677,959.056,386.729,953.341,396.3Z" transform="translate(-923.854 -374.881)" fill="#0b4870" fill-rule="evenodd"/>
          <path id="Path_91" data-name="Path 91" d="M907.421,418.245c-1.42-6.266-6.158-7.733-8.917-6.227-1.764,11.727-3.568,16.939-8.164,23.338,5.715,3.662,15.471,2.982,17.58,0C908.006,434.413,908.152,421.486,907.421,418.245Z" transform="translate(-890.34 -390.835)" fill="#fcd2b1"/>
          <path id="Path_92" data-name="Path 92" d="M913.074,383.754c4.334-5.366,13.13-4.4,16.31,2.225,2.909,6.068-.28,18.888-2.8,21.56-4.4,4.665-13.741-.68-15.041-4.179C909.64,398.235,909.429,388.264,913.074,383.754Z" transform="translate(-901.652 -373.072)" fill="#ffe3ca"/>
          <path id="Path_93" data-name="Path 93" d="M909.3,389.4c.267.977-2.04,13.956-2.4,13.81-1.274-.525-2.9-4.17-5.3-4.032-.77.043-1.829.542-1.859-1-.189-9.752-.572-9.257,1.166-10.148C904.742,386.056,908.822,387.653,909.3,389.4Z" transform="translate(-895.597 -376.962)" fill="#0b4870" fill-rule="evenodd"/>
          <path id="Path_94" data-name="Path 94" d="M894.836,369.866c7.957-5.586,21.005-7.7,24.779-5.478,5.625,3.305,1.489,12.747-.624,13.268-.964.237-1.846-.521-2.668-1.08-3.89-2.651-7.376-.624-10.3-.086C900.839,377.44,888.058,374.626,894.836,369.866Z" transform="translate(-891.798 -363.518)" fill="#0b4870" fill-rule="evenodd"/>
          <path id="Path_95" data-name="Path 95" d="M899.345,407.922a6.159,6.159,0,0,0,1.343,4.424c2.858,3.507,5.724-1.235,5.061-4.187C904.957,404.638,899.749,403.644,899.345,407.922Z" transform="translate(-895.455 -387.204)" fill="#ffe3ca"/>
        </g>
        <path id="Path_96" data-name="Path 96" d="M1002.435,1043.205c.142-1.588-1.364-2.9-2.913-3.271a21.988,21.988,0,0,0-4.764-.108,12.865,12.865,0,0,1-11.047-6.821,3.257,3.257,0,0,0-1.11-1.476,2.138,2.138,0,0,0-2.311.426c-.646.529-1.1,1.248-1.687,1.838a5.67,5.67,0,0,1-4.045,1.618c-1.248-.017-2.642-.973-3.843-.34-1.059.555-1.343,2.018-1.609,3.064-.461,1.8-.882,3.611-1.321,5.414a7.458,7.458,0,0,0-.224,1.231h34.122A2.671,2.671,0,0,0,1002.435,1043.205Z" transform="translate(-884.336 -743.944)" fill="#0b4870" fill-rule="evenodd"/>
        <path id="Path_97" data-name="Path 97" d="M877.215,1043.527a3.7,3.7,0,0,0-1.282-3.271c-.68-.37-1.747-3.03-3.154-6.924-.646-1.782-4.243-2.281-6.038.787-.581.994-1.123,1.64-1.777,1.618-.547-.017-1.162-.973-1.687-.34a7.345,7.345,0,0,0-.706,3.064c-.2,1.8-.387,3.611-.581,5.414-.043.4-.086.818-.1,1.231h15A4.865,4.865,0,0,0,877.215,1043.527Z" transform="translate(-824.141 -744.266)" fill="#0b4870" fill-rule="evenodd"/>
        <path id="Path_98" data-name="Path 98" d="M1053.838,499.68l-18.8,11.835a35.51,35.51,0,0,0,.9,6.124c.435,2.152,6.817,1.747,8.2.689C1045.6,517.2,1054.3,516.063,1053.838,499.68Z" transform="translate(-922.776 -441.083)" fill="#ffe3ca"/>
        <path id="Path_99" data-name="Path 99" d="M1042.694,505.489h9.627a1.465,1.465,0,0,0,1.321-1.033l5.879-20.433a.757.757,0,0,0-.745-1.033h-9.627a1.466,1.466,0,0,0-1.321,1.033l-5.879,20.433A.759.759,0,0,0,1042.694,505.489Z" transform="translate(-926.69 -431.575)" fill="#d3d3d3"/>
        <path id="Path_100" data-name="Path 100" d="M1040.514,505.489h9.627a1.466,1.466,0,0,0,1.321-1.033l5.879-20.433a.757.757,0,0,0-.745-1.033h-9.627a1.465,1.465,0,0,0-1.321,1.033l-5.879,20.433A.759.759,0,0,0,1040.514,505.489Z" transform="translate(-925.449 -431.575)" fill="#f7f7f7"/>
        <path id="Path_101" data-name="Path 101" d="M1042.464,505.848h8.676a1.329,1.329,0,0,0,1.192-.93l5.3-18.419a.682.682,0,0,0-.671-.93h-8.676a1.329,1.329,0,0,0-1.192.93l-5.3,18.419A.681.681,0,0,0,1042.464,505.848Z" transform="translate(-926.603 -433.045)" fill="#2a94f4" fill-rule="evenodd"/>
        <path id="Path_102" data-name="Path 102" d="M1036.625,517.62c1.424-1.739,3.4-4.6,4.291-5.663a6.542,6.542,0,0,0,.723-.826.824.824,0,0,0-.043-1.011c-.349-.314-.9-.082-1.3.164-1.958,1.188-4.037,2.513-4.889,4.639a6.559,6.559,0,0,0-.37,2.535S1036.7,517.865,1036.625,517.62Z" transform="translate(-922.773 -446.943)" fill="#ffe3ca"/>
        <path id="Path_103" data-name="Path 103" d="M803.271,488.41s-27.912,33.683-29.07,38.305c-.977,3.912,22.864,27.852,30.241,35.147a3.492,3.492,0,0,1,.366,4.544l-6.24,7.264a.775.775,0,0,0,.3,1.227h0a6.878,6.878,0,0,0,6.541-.783l2.091-1.485a10.316,10.316,0,0,0,3.933-5.556h0a8.645,8.645,0,0,0-1.39-7.57l-1.274-1.7-18.81-29.376L811,500.348Z" transform="translate(-774.172 -434.663)" fill="#ffe3ca"/>
        <path id="Path_104" data-name="Path 104" d="M963.74,490.56,957.47,505.6s4.8,35.4,13.853,40.978,24.771-32.642,24.771-32.642l-4.557-4.42-16.646,21.3Z" transform="translate(-878.588 -435.888)" fill="#ffe3ca"/>
        <path id="Path_105" data-name="Path 105" d="M844.607,463.93s-10.1.422-25.967,21.913l12.984,16.138,12.984-10.492S861.188,481.312,844.607,463.93Z" transform="translate(-799.503 -420.718)" fill="#ffdb57"/>
        <path id="Path_106" data-name="Path 106" d="M938.462,463.93s16.461,3.641,19.594,29.591l-15.635,5.8S934.4,467.678,938.462,463.93Z" transform="translate(-867.107 -420.718)" fill="#ffdb57"/>
        <g id="Group_43" data-name="Group 43" transform="translate(123.556 14.177)">
          <g id="Group_42" data-name="Group 42">
            <g id="Group_40" data-name="Group 40">
              <path id="Path_107" data-name="Path 107" d="M1099.68,400.307a17.088,17.088,0,0,1-4.725,1.3,8.154,8.154,0,0,0,3.606-4.532,16.283,16.283,0,0,1-5.2,1.984,8.2,8.2,0,0,0-14.184,5.607,8.513,8.513,0,0,0,.189,1.868,23.191,23.191,0,0,1-16.9-8.577,8.2,8.2,0,0,0,2.517,10.957,8.12,8.12,0,0,1-3.705-1.011v.09a8.233,8.233,0,0,0,6.571,8.056,8.254,8.254,0,0,1-2.152.271,7.152,7.152,0,0,1-1.554-.142,8.272,8.272,0,0,0,7.66,5.711c-2.789,2.182-4.192,7.066.452,7.066,15.088,0,23.338-12.5,23.338-23.333,0-.362-.013-.714-.03-1.059A16.182,16.182,0,0,0,1099.68,400.307Z" transform="translate(-1061.28 -396.46)" fill="#2a94f4"/>
            </g>
            <g id="Group_41" data-name="Group 41" transform="translate(3.623 28.192)">
              <path id="Path_108" data-name="Path 108" d="M1086.534,465.318c-3.8,2.974-9.179,7.131-13.84,10.574a1.872,1.872,0,0,1-2.746-2.419,41.013,41.013,0,0,0,3.89-9.248,1.864,1.864,0,0,1,1.64-1.381l9.739-.865A1.871,1.871,0,0,1,1086.534,465.318Z" transform="translate(-1069.698 -461.97)" fill="#2a94f4"/>
            </g>
          </g>
        </g>
      </g>
    </g>
  </g>
</svg>
